<svg xmlns="http://www.w3.org/2000/svg" xmlns:xlink="http://www.w3.org/1999/xlink" version="1.1" id="Layer_1" x="0px" y="0px" viewBox="0 0 1080 1080" style="enable-background:new 0 0 1080 1080;" xml:space="preserve">
<style type="text/css">
	.st0{fill:#F2AC8C;}
	.st1{fill:#20496C;}
	.st2{fill:#F5BF67;}
	.st3{fill:#E2A188;}
	.st4{fill:#3D87D1;}
	.st5{fill:#4C94ED;}
	.st6{fill:#4A94ED;}
	.st7{fill:#245386;}
	.st8{fill:#FFB792;}
	.st9{fill:#FFC97B;}
	.st10{fill:#EAA281;}
	.st11{fill:#F7A491;}
	.st12{fill:#F47458;}
	.st13{fill:#F0F1F0;}
	.st14{fill:#FFE697;}
	.st15{fill:#FFFFFF;}
	.st16{fill:#C1DDF7;}
	.st17{opacity:8.000000e-02;}
	.st18{fill:#A1BDD6;}
</style>
<g>
	<path class="st0" d="M557.6,412.9l-4.6-8.8c0,0,4.1-20-13.1-29c0,0-7.3-3-7,3.8c0.3,6.8,1,4.2,1.3,13.8c0.3,9.6,4.1,18.5,9.4,21.2   l4.7,5.7L557.6,412.9z"/>
	<g>
		<path class="st1" d="M803.8,995.7c-1.9,6.3-10.5,10.5-11.6,18.1c-0.6,3.7-2,6.7-3.7,8.6h-26.8c0.3-1.5,1.4-3.1,4.9-3.8    c7.4-1.6,10.2-10.6,9.8-19c-0.2-3.5-0.1-7.5,0.1-11c0.2-4.8,0.6-8.6,0.6-8.6l15.8-3.7l1.7,2.1l1.6,2    C796.1,980.6,805.6,989.4,803.8,995.7z"/>
		<path class="st1" d="M679.2,1022.5H625c1.2-1.4,3.3-2.8,6.8-3.4c8.3-1.4,22.8-6.2,26-16.8c0.1-0.3,0.2-0.7,0.3-1    c2.6-11.4,21.1,3.5,21.1,3.5s0.1,0.5,0.1,1.2C679.7,1009.1,680.4,1017.8,679.2,1022.5z"/>
		<path class="st2" d="M634.1,720.9c0,0,2.8,35.2,6.1,77.5c4.5,57.5,9.9,128.1,10.5,141.5c0.9,23.2,4.6,60.4,4.6,60.4    s8.8,8.8,26.5,5.1c0,0,15.7-53.1,20.2-109.2c0.1-0.9,0.1-1.8,0.2-2.8c4.2-57.1,10.7-177.5,10.7-177.5L634.1,720.9z"/>
		<path class="st2" d="M646.9,725.1c0,0,50.9,127.5,84.3,187.5c33.5,59.9,43.9,76.7,43.9,76.7s19.2-7.7,20.9-12.9    c0,0-12.8-115.7-35.2-143.9c-12.7-15.9-27.5-63.8-28.2-80.5c-0.7-16.7-4.5-49.8-4.5-49.8L646.9,725.1z"/>
	</g>
	<path class="st3" d="M670.9,526.1c-2.4-15.7-2.9-34.1-2.9-34.1l25.8-15.1c-0.6,33.6,18,50,18,50s-34.2,19.4-54.2,11.8   C657.6,538.7,662.4,531.4,670.9,526.1z"/>
	<path class="st0" d="M650.7,491.2c0,0,27.3,19.1,38.9,1.9c11.6-17.2,32.3-25.2,15.4-38.2c-16.9-12.9-34.1-9.7-39.4-4.9   C660.3,454.9,643.9,485.8,650.7,491.2z"/>
	<g>
		<path class="st4" d="M550.6,412c3.9-5.6,4.5-6.4,4.5-6.4s38.9,48.5,42.7,53c3.8,4.5,70.2,48,70.2,48l-0.7,66.2    c0,0-81.2-76.5-90.7-88.2c-15.7-19.2-31.2-65.2-31.2-65.2S546.7,417.5,550.6,412z"/>
	</g>
	<path class="st5" d="M732,708.6c0.1,2.2-4.4,4.6-6.4,5.5c-14.8,6.6-28.5,11.2-44,12.7c-18.4,1.9-40.2-2.3-47.7-2.2   c-0.8,0-1.5-0.3-2.1-0.8c-0.5-0.4-0.9-22.9-0.5-51.3c0-1.1,0-2.3,0.1-3.4v-0.4c0-3,0.1-6,0.1-9c0.2-8.3,0.5-16.8,0.9-25.3   c0.5-12.5,1.3-24.7,2.3-35.6c1.1-11.3,2.4-21.2,4.2-28.1c4-16,13.1-26.6,21.5-34.4l6.9-6.1c6.9,1.4,14.1,1,21.4-2.6   c7.9-3.9,16.4-8.1,17.8-7.1c10.6,7.9,17.8,25.9,21.4,48.8c2,12.3,2.9,26,2.9,40.4c0,5.5-0.2,11.1-0.5,16.7   c-1.8,30.2,0,56.4,1.1,71.7C731.7,702.7,732,706.2,732,708.6z"/>
	<path class="st6" d="M707.3,568.9c0,0-15.9,74.3-75.7,90.8c0.2-8.3,0.5-16.8,0.9-25.3c0.5-12.5,1.3-24.7,2.3-35.6   c1.1-0.6,2.1-1,3-1.3C658,591,707.3,568.9,707.3,568.9z"/>
	<g>
		<path class="st0" d="M581.4,386.5l-1.6-10.2c0,0,9.9-16.8-3.4-32.7c0,0-5.9-6-7.6,0.4c-1.8,6.5-0.4,4.3-3,13.4    c-2.7,9.1-1.8,19,2.3,23.9l2.6,7.4L581.4,386.5z"/>
		<path class="st5" d="M575.1,381c6-2.3,7.8,1.2,7.8,1.2s26.3,71.3,29.2,77.2c2.9,5.9,60.8,46.4,60.8,46.4s23.7,15.1,22.8,33.4    c-0.7,15.9-9.2,24.5-17.9,29.1c-10.4,5.5-22.6,2.7-30.6-7c-18.1-21.7-54-65.2-59.3-76.3c-11.9-24.8-20.4-98.4-20.4-98.4    S570.4,382.8,575.1,381z"/>
	</g>
	<path class="st7" d="M669.4,436.5c-2.1,2.3-2.8,5.8-1.3,8.5c1.1,2,3.1,3.2,5.3,3.9c3,1,6.4,1,9.4,0.1c0.5,3.9,1.2,8,3.4,11.3   c2.9,4.4,8.1,6.8,12.2,10.2c1.6,1.4,3.2,2.9,3.9,4.9c0.3,0.7,0.5,1.5,0.1,2.2c-0.4,0.9-1.6,1.2-2.6,1.2s-2-0.3-3-0.1   c-1.9,0.3-3.2,2.2-4,4c-1,2.4-1.6,4.9-1.8,7.5c-0.1,1.6,0.1,3.3,0.8,4.8c0.6,1.2,1.6,2.1,2.6,3c2.7,2.3,5.9,4.2,9.3,5.3   c1.6-2.6,0.1-6.5,2.2-8.7c1.9-1.9,5.1-0.9,7.8-1.3c3.8-0.5,6.7-3.8,8.2-7.3c1.5-3.3,2-7.2,1.1-10.7s-3.5-6.7-7-7.9   c5.1-3.7,6.9-4.2,8-10.4c0.4-2.2,2-10-3.3-15.8c-1.7-1.9-4.8-2.2-7.3-1.8c-1.9-4.3-4.8-8.2-8.5-11c-3.8-2.8-8.6-3.3-12.8-5.4   c-4-2-11.9,0.1-14,5c-0.5,1.1-0.6,4-1.6,4.8C674.4,434.5,671.4,434.3,669.4,436.5z"/>
</g>
<g>
	<g>
		<path class="st8" d="M435.6,531.3l7.2-1.9c0,0,4.6-16.1,22.1-8c0,0,7.1,3.9,4.2,8c-3,4.1-2.5,1.9-6.5,7.8c-4,5.9-10.6,8.5-16,6    l-6.1-0.1L435.6,531.3z"/>
		<path class="st2" d="M443.5,537.8c-1.2-6.5-4.4-8.3-4.4-8.3s-67.1,17.6-73.2,19.9c-4.2,1.6-55.8,13-84,15.4    c-14,1.2-17.3,12.7-21.8,25.3l-3.7,10.4c-4.5,12.5,8.3,25.7,21.6,22.3c37.6-9.6,89.2-33.4,99.4-37.4C402.6,575.2,443,549,443,549    S444.5,543.4,443.5,537.8z"/>
	</g>
	<path class="st7" d="M458.9,985.7c0,0,12,10.8,32.2,7.5c0,0,16.2-2.2,19,6c0,0-25.5,10.2-31.9,13c-4.9,2.1-10.1,5.7-13.8,8.5   c-2.9,2.2-7.1,1.5-9.2-1.5c-1-1.4-2-3.1-3.2-5c-3.3-5.4-10.6-22.7-10.6-22.7L458.9,985.7z"/>
	<path class="st5" d="M465.3,981.8c0,0-9.5,17.4-27.2,12.4c0,0-34.2-33.8-56.6-67.7c-7.3-11-13.4-22-16.6-31.9   c-13.3-40.4-53.4-102.4-79.6-134.3l74.4-19.6c0,0,18.9,48.5,44.5,108.3C422.6,892,444.5,941,465.3,981.8z"/>
	<path class="st5" d="M404.1,849l-22.7,77.6c-7.3-11-13.4-22-16.6-31.9c-13.3-40.4-53.4-102.4-79.6-134.3l74.4-19.6   C359.6,740.7,378.6,789.2,404.1,849z"/>
	<path class="st7" d="M332.4,984.7c0,0-2.1,14.3,15.2,17.8c0,0,10,0.9,9.2,10.1l-50.8-4.4c0,0-1.1-3.8-0.8-11.8   c0.3-6.1,7.9-21.5,7.9-21.5L332.4,984.7z"/>
	<path class="st5" d="M336,738.6c0,0,28.9,38.1,43.6,103.5c8,35.6-31.2,119.7-40,149.3c0,0-21.2-0.1-35.1-7c0,0,4.5-62.5,17.2-109.8   c7.1-26.5-37.1-61.3-53.3-111.8c-11-34.3,5.9-32.2,26.9-31.2L336,738.6z"/>
	<path class="st8" d="M313.1,578c-18.8,8.5-54.5-4.1-54.5-4.1s16.4-15.6,12.1-43.6l13.4,8.4l14.4,9c0,0,0.5,4.9,0.4,13.6   c0,2.2-0.1,4.8-0.2,7.5C307.5,572.4,313.1,578,313.1,578z"/>
	<path class="st2" d="M364.6,739.3c-0.3,3.1-4,4.3-4.8,4.4c-7.3,0.7-28.1,6.7-46.4,6.9c-15.4,0.2-29.4-2.6-44.7-7.1   c-2-0.6-6.7-2.3-6.9-4.3c-0.2-2.2-49.1-126.8,1.8-173.9c1.2-1.1,10.1,1.9,18.3,4.6c7.6,2.5,14.7,2.1,21.3,0.2l7.5,4.8   c9.1,6.2,25.7,26.9,26.5,42.1c0.4,7.7,4.2,13.7,4.9,20.5c0.2,2.5,0.5,5,0.8,7.4c0.5,4.7,1.1,9.2,1.8,13.5   c1.7,11.6,3.7,21.6,5.8,30.2c2.2,9.2,4.5,16.9,6.6,23.3c2.7,8.4,5,14.7,6.4,19.4C364.3,734.7,364.8,737.3,364.6,739.3z"/>
	<path class="st2" d="M363.3,731.3c-80.6-47.2-102.9-125.9-102.9-125.9s66.1,31.3,82.3,39.4c0.5,4.7,1.1,9.2,1.8,13.5   c1.7,11.6,3.7,21.6,5.8,30.2c2.2,9.2,4.5,16.9,6.6,23.3C359.6,720.2,361.9,726.5,363.3,731.3z"/>
	<path class="st9" d="M451.2,543.5c-4.2-6.3-6.1-9.2-6.1-9.2s-69.4,18.4-75.9,20.7c-4.4,1.6-50.3,15.8-79.5,17.8   c-14.5,1-27.2,9.9-33,23l-4.8,10.8c-5.8,13.1,6.1,27.1,20.1,23.8c39.5-9.4,94.8-33.4,105.6-37.5c26.9-10.1,76-40,76-40   S454.5,548.5,451.2,543.5z"/>
	<path class="st8" d="M298.8,561.3c-17.6-0.6-27.8-16.1-27.8-16.1s8.3-3.7,13-6.5l14.4,9C298.4,547.7,298.9,552.6,298.8,561.3z"/>
	<path class="st8" d="M307.9,543.9c0,0-28.3,16.7-38.5-1.1c-10.1-17.8-20.6-27.6-3-39c17.7-11.4,25.1-6.6,29.9-1.5   C301.2,507.4,315,539.1,307.9,543.9z"/>
	<path class="st7" d="M300.6,487.4c-0.4-6.5-2.1-11.2-2.1-11.2s-2.3,6.8-14.8,4.7c-12.6-2.1-32.8-1.7-40.8,12.1   c-0.5,0.9-1,1.8-1.4,2.7c-0.9-3.3-0.8-8.1-0.8-8.1c-3,6-1.3,14-1.3,14l0,0c-0.1,0.2-0.1,0.4-0.2,0.7c-3,2.1-6,9.2-6,9.2   c1-2,3.2-3.1,5.1-3.8c-1.1,11.2,2.5,22.6,10.2,26.5c11.2,5.8,11.5,2.2,22.5,11c0,0,3.5-3.6,1.6-6.4c-1.9-2.8-9.7-7.4-4.8-10.8   c4.9-3.4,6.2,1,8.1-1.4c1.9-2.5-5.8-10.9,5.6-17C292.9,503.3,301,493.9,300.6,487.4z"/>
</g>
<g>
	<path class="st10" d="M598.9,602.2c-2-5.4-5.9-12.9-13.1-16.9c-10-5.5-57.1-40-67.8-49.3c-5.3-13.6-13.4-58.4-13.4-58.4   s2.9-5.7,3.3-10.6c1.7-4.6-0.1-10.5-4.5-15.2c-5.3-5.6-3.1-4.5-6.8-8.6c-3.7-4-8.9,2-8.9,2c-9.7,13.2,0.3,21.5,3.3,23.7   c0.6,2.9,1,5.2,1.4,6.9l0.1,1.4l0.2,0c0.4,1.9,0.6,2.8,0.6,2.8s1,50.4,7.8,70c0.3,0,0.7,0,1,0c-0.3,0-0.7,0-1,0   c7.8,16.7,63.7,69.6,93.1,61.6C598.2,610.6,600.3,606.2,598.9,602.2z"/>
	<g>
		<path class="st11" d="M574.3,975.1c0,0-1.6,19.7-0.3,26.2c0.7,3.4,4.5,10.5,2.7,13.7c-1.7,3.2-3.7,4-3.7,4l-44.9,0.7    c-2.4,0-0.8-1.5,1.1-3c3.2-2.4,5.8-3.9,16.2-8.9c0.7-0.3,3.1-1.9,4-2.4c2.2-1.4,4.5-3.5,6.4-5.7c3.2-3.6,3.5-21,3.5-21    L574.3,975.1z"/>
		<path class="st7" d="M539.2,712.7c0,0-5.7,32.1-1.9,53.1c3.7,21,21.5,215.8,21.5,215.8l19.8,1.1c0,0,4.2-81.4,3.4-92.7    c-0.7-11.3-6.6-30.2-6.6-30.2l2-65.7l-25-86.3L539.2,712.7z"/>
		<path class="st7" d="M584.8,572.6c0,0,13.7,1.6,21.8,10.4c8.2,8.9-13.2,80.3-14.7,91.7c-1.5,11.3,12.2,37.7,12.2,37.7    s-51.1,9.4-64.9,0.3c0,0-1.5-81.4,0-89.4c1.5-8.1,13.9-40.9,16.8-44.2C559,575.8,584.8,572.6,584.8,572.6z"/>
		<path class="st11" d="M577.9,545c0,0,0.1,0.6,0.3,1.6c0.9,5,4.5,21.4,6.9,25.9c2.9,5.5-9.9,22.9-22.2,20.8    c-3.7-0.6,3.1-16,2.8-17.6c-0.6-3.1-1.5-7.4-2.3-11.7c-0.5-2.5-1-5-1.4-7.3c-1.3-6.7-2.4-12.1-2.4-12.1L577.9,545z"/>
		<path class="st12" d="M578.2,546.7c-0.2-1-0.3-1.6-0.3-1.6l-18.5-0.5c0,0,1.1,5.4,2.4,12.1c0.5,2.3,1,4.8,1.4,7.3    c2.9-0.4,5.8-1.8,8.8-4.4c3.3-2.8,5.4-6.3,6.7-9.9C578.6,548.5,578.4,547.5,578.2,546.7z"/>
		<path class="st10" d="M578,502c0,0,5.7,8.6,8,17.6c2.4,9-1,32.5-19.2,38.3c-18.3,5.8-28.8-13.4-24.8-27.9    C546,515.5,558.9,493.4,578,502z"/>
		<path class="st11" d="M637,974.2c0,0,1.6,19.7,3.9,25.9c1.2,3.3,6.1,9.7,4.9,13.1c-1.2,3.5-3,4.6-3,4.6l-44.2,7.9    c-2.4,0.4-1.1-1.4,0.6-3.1c2.8-2.9,5.1-4.8,14.5-11.4c0.6-0.4,2.8-2.4,3.6-3c2-1.7,3.9-4.2,5.4-6.6c2.6-4.1,0.1-21.3,0.1-21.3    L637,974.2z"/>
		<path class="st7" d="M539,713c0,0,20.6,40.4,27.7,60.5c7,20.1,56,209.5,56,209.5l19.7-2.1c0,0-9-81-11.5-92    c-2.6-11-11.4-28.8-11.4-28.8S636,800,630,766s-26-54-26-54L539,713z"/>
		<path class="st2" d="M570.6,495.1c7.2-2.3,15.3-2.4,21.9,1.3c6.8,3.7,11,10.9,13.9,18.1c3.9,9.9,5.6,20.6,5.2,31.3    c-0.4,8.8-2.8,18.5-10.2,23.4c-4.4,3-10,3.8-15.3,3.3c-5.3-0.5-10.3-2.3-15.3-4.2c-3.4-1.3-6.8-2.7-9.5-5.1    c-1.5-1.4-2.8-3-3.7-4.9c3.9,0.9,8.1,0.1,11.6-1.7c3.6-1.8,6.6-4.6,9.2-7.6c3.6-4.1,6.7-9.2,6.1-14.6c-0.1-0.6-4.3-2.9-5-3.4    c-1.7-1.4-3.3-2.9-4.7-4.5c-2.9-3.2-5.2-6.9-6.9-10.8C564.8,508.8,561.1,498.1,570.6,495.1z"/>
		<path class="st10" d="M580.3,538c-2.2,3.3-2.3,7.1-0.2,8.5c2.1,1.4,5.6,0,7.8-3.3c2.2-3.3,2.3-7.1,0.2-8.5    C586,533.2,582.5,534.7,580.3,538z"/>
	</g>
	<path class="st5" d="M539.1,704.5c0,0,16.4,12.8,59.2-4.8L604,712c0,0-33.6,28.4-65.8,7.2L539.1,704.5z"/>
	<path class="st5" d="M547,1005c0,0,7,5,6,9c0,0,21.4,1.1,21.7-10.4c0,0,4.3,3.4,4.3,8.4s-3,10-3,10h-51C525,1022,514,1018,547,1005   z"/>
	<path class="st5" d="M614.9,1008.7c0,0,7.7,3.9,7.3,8c0,0,21.3-2.2,19.9-13.6c0,0,4.8,2.7,5.5,7.7c0.8,4.9-1.4,10.3-1.4,10.3   l-50.4,7.8C595.7,1028.9,584.2,1026.6,614.9,1008.7z"/>
</g>
<path class="st7" d="M645.6,146.8L274.1,967.1c-1.9,4.3-7,6.2-11.3,4.3L262,971c-4.3-1.9-6.2-7-4.3-11.3l371.5-820.3  c1.9-4.3,7-6.2,11.3-4.3l0.8,0.4C645.6,137.5,647.5,142.5,645.6,146.8z"/>
<path class="st8" d="M603.9,593.2c-2-5.4-5.9-12.9-13.1-16.9c-10-5.5-57.1-40-67.8-49.3c-5.3-13.6-13.4-58.4-13.4-58.4  s2.9-5.7,3.3-10.6c1.7-4.6-0.1-10.5-4.5-15.2c-5.3-5.6-3.1-4.5-6.8-8.6c-3.7-4-8.9,2-8.9,2c-9.7,13.2,0.3,21.5,3.3,23.7  c0.6,2.9,1,5.2,1.4,6.9l0.1,1.4l0.2,0c0.4,1.9,0.6,2.8,0.6,2.8s1,50.4,7.8,70c0.3,0,0.7,0,1,0c-0.3,0-0.7,0-1,0  c7.8,16.7,63.7,69.6,93.1,61.6C603.2,601.6,605.3,597.2,603.9,593.2z"/>
<path class="st2" d="M646,147c0,0,106,30,97,72s103,68,103,68l-65,110c0,0-101-32-105-60s-90.5-57.5-90.5-57.5L646,147z"/>
<path class="st13" d="M750.9,297.4c0.9-4.3-1.2-10.1-4.7-12.8c-2.6-2-5.5-2.9-8.4-2.8c-1.6,0-2.7-1.7-2-3.1l7.9-16.6  c1.2-2.4,0.1-5.3-2.3-6.5l-57.7-27.5c-2.4-1.1-5.2-0.1-6.3,2.2l-27.5,57.6c-0.8,1.6-0.6,3.5,0.4,4.9l-0.8-0.3l1.9,1.5l0,0  c0.2,0.2,0.5,0.3,0.8,0.5l1.3,0.6l0,0l0,0l14.8,7.1c2.1,1,4.5-0.6,4.3-2.9c-0.1-2.2,0.3-4.5,1.4-6.6c3-6,10.3-8.7,16.5-6.1  c6.9,2.9,10,10.9,6.8,17.6c-1.2,2.5-3.1,4.5-5.4,5.7c-0.9,0.5-1.2,1.5-1,2.3l-1-0.2l1.7,1.3l0,0c0.1,0.1,0.3,0.2,0.4,0.3l17.7,8.4  c2.4,1.2,5.3,0.1,6.5-2.3l7.9-16.5c0.7-1.5,2.8-1.7,3.8-0.4c1.2,1.5,2.8,2.8,4.6,3.7C739.9,310,749,305.9,750.9,297.4z"/>
<g>
	<g>
		<g>
			<path class="st2" d="M407.5,371.2h-52.3c0,0-17.1,18-14.8,44.4c0,0,4.8-5.5,8.7-8.3c0.7-0.5,1.7,0.1,1.5,0.9     c-0.9,6-0.1,23.9,30.7,54.3c30.8-30.4,31.6-48.4,30.7-54.3c-0.1-0.9,0.8-1.5,1.5-0.9c3.9,2.8,8.7,8.3,8.7,8.3     C424.6,389.1,407.5,371.2,407.5,371.2z"/>
		</g>
		<path class="st14" d="M381.2,350.8L381.2,350.8c0,0-33.5,26.6,0,72.4v0C414.7,377.4,381.2,350.8,381.2,350.8z"/>
		<path class="st15" d="M381.2,367.8L381.2,367.8c0,0-20,15.9,0,43.3v0C401.2,383.7,381.2,367.8,381.2,367.8z"/>
	</g>
	<g>
		<path class="st5" d="M343.6,359.2l3.8,7.3c1.6,3.1,4.8,5.1,8.4,5.1H381h0h25.2c3.5,0,6.7-2,8.4-5.1l3.8-7.3H343.6z"/>
		<path class="st4" d="M332.9,345.3l4.9,9.4c2.1,4,6.2,6.5,10.8,6.5H381h0.1h32.5c4.5,0,8.7-2.5,10.8-6.5l4.9-9.4H332.9z"/>
	</g>
	<g>
		<g>
			<path class="st7" d="M427.5,272.9c0,0,82,28.2,76.8,110.5c0,0-69-70.3-106.6-55.3L427.5,272.9z"/>
		</g>
		<g>
			<path class="st7" d="M335.2,272.9c0,0-82,28.2-76.8,110.5c0,0,69-70.3,106.6-55.3L335.2,272.9z"/>
		</g>
	</g>
	<path class="st2" d="M420.8,115.4C411.3,91.6,398.4,68.3,381,47l0,0.1l0-0.1c-17.2,21.1-30.1,44.1-39.5,67.7   C359.9,110.3,387.7,107.3,420.8,115.4z"/>
	<path class="st5" d="M421.9,118.2L421.9,118.2l-1.1-2.8c-43.8-11.3-79.4-0.7-79.4-0.7l-1.4,3.5c0,0,0,0,0,0   c-36.2,93.8-19.8,195.7-14,224.4c0.9,4.6,5,7.9,9.7,7.9h6.2h78.6h5.5c4.7,0,8.8-3.3,9.7-7.9C441.7,313.9,458.1,212,421.9,118.2z"/>
	<g>
		<circle class="st7" cx="379.4" cy="191.2" r="33.6"/>
		
			<ellipse transform="matrix(0.9256 -0.3785 0.3785 0.9256 -44.6267 158.5514)" class="st16" cx="381" cy="192.8" rx="25.7" ry="25.7"/>
		<circle class="st13" cx="379.4" cy="191.2" r="25.5"/>
		<g class="st17">
			<path class="st18" d="M381,170.1c10.1,0,18.8,5.9,22.9,14.4c-3-10.8-12.8-18.7-24.5-18.7c-14.1,0-25.5,11.4-25.5,25.5     c0,4,0.9,7.7,2.6,11.1c-0.6-2.2-0.9-4.4-0.9-6.8C355.5,181.5,366.9,170.1,381,170.1z"/>
		</g>
	</g>
	<path class="st7" d="M381.4,283.1c-27.5,62.5,0,116.6,0,116.6S408.8,345.7,381.4,283.1z"/>
</g>
</svg>